<svg width="37" height="38" viewBox="0 0 37 38" fill="none" xmlns="http://www.w3.org/2000/svg">
<circle cx="18.306" cy="19.3001" r="16" transform="rotate(-9 18.306 19.3001)" fill="#1C5BD9"/>
<path d="M13.2456 10.4619L12.4363 10.8525C11.7158 11.2006 11.1097 11.7472 10.6893 12.4281C10.269 13.109 10.0519 13.8958 10.0636 14.6959C10.0998 17.2027 11.3407 19.9439 13.7588 22.93C16.1708 25.9085 18.5889 27.6906 21.0288 28.2518C21.8127 28.4321 22.6319 28.3835 23.389 28.1117C24.1461 27.8399 24.8092 27.3565 25.2995 26.7188L25.8455 26.0079C26.2001 25.547 26.3753 24.9731 26.3386 24.3928C26.3018 23.8124 26.0557 23.2652 25.6458 22.8527L23.6857 20.879C23.4208 20.6126 23.0791 20.4358 22.7087 20.3733C22.3382 20.3108 21.9574 20.3659 21.6198 20.5307L19.3066 21.6588L19.2457 21.6806C18.984 21.7622 18.2735 21.2806 17.2917 20.0681C16.2647 18.7995 15.9694 18.0092 16.1576 17.7631L17.2111 16.4141C17.5965 15.9211 17.8178 15.3198 17.8441 14.6947C17.8703 14.0695 17.7002 13.4518 17.3576 12.9282L16.2969 11.309C15.9779 10.8218 15.4925 10.4671 14.9313 10.3112C14.3702 10.1553 13.7714 10.2088 13.2468 10.4618L13.2456 10.4619ZM15.2941 11.966L16.3525 13.5856C16.5584 13.8995 16.6607 14.2701 16.6452 14.6452C16.6296 15.0203 16.497 15.3811 16.2658 15.6769L15.2089 17.0277C14.535 17.9047 15.0012 19.1454 16.3604 20.823C17.6383 22.4018 18.6892 23.115 19.6493 22.8098L19.7914 22.7557L22.1465 21.6088C22.2591 21.5537 22.386 21.5352 22.5096 21.556C22.6332 21.5767 22.7471 21.6356 22.8355 21.7244L24.7956 23.6981C25.0008 23.9043 25.1241 24.178 25.1425 24.4682C25.161 24.7585 25.0735 25.0456 24.8961 25.2762L24.349 25.9873C23.9987 26.4426 23.5251 26.7877 22.9845 26.9816C22.4438 27.1756 21.8588 27.2103 21.299 27.0815C19.1581 26.5896 16.9504 24.9625 14.6925 22.1746C12.4287 19.3803 11.295 16.8785 11.2636 14.6783C11.2551 14.1067 11.4102 13.5446 11.7105 13.0581C12.0107 12.5717 12.4438 12.1812 12.9585 11.9326L13.7678 11.542C14.0302 11.4155 14.3296 11.3889 14.6102 11.4669C14.8908 11.545 15.1335 11.7224 15.2929 11.9662L15.2941 11.966Z" fill="white"/>
</svg>
