<svg width="48" height="48" viewBox="0 0 48 48" fill="none" xmlns="http://www.w3.org/2000/svg">
<path d="M32.744 23.242C35.884 23.242 38 25.426 38 28.662C38 31.574 35.568 34 32.274 34C28.666 34 26 31.088 26 26.64C26 16.53 33.372 12.486 38 12V16.448C34.862 17.014 31.334 20.168 31.176 23.648C31.334 23.568 31.96 23.242 32.744 23.242ZM16.746 23.242C19.882 23.242 22 25.426 22 28.662C22 31.574 19.568 34 16.274 34C12.666 34 10 31.088 10 26.64C10 16.53 17.372 12.486 22 12V16.448C18.862 17.014 15.334 20.168 15.176 23.648C15.334 23.568 15.96 23.242 16.746 23.242Z" fill="white"/>
</svg>
