<svg width="32" height="32" viewBox="0 0 32 32" fill="none" xmlns="http://www.w3.org/2000/svg">
<path fill-rule="evenodd" clip-rule="evenodd" d="M30.2222 16C30.2222 23.8547 23.8547 30.2222 16 30.2222C8.14528 30.2222 1.77778 23.8547 1.77778 16C1.77778 8.14528 8.14528 1.77778 16 1.77778C23.8547 1.77778 30.2222 8.14528 30.2222 16ZM32 16C32 24.8366 24.8366 32 16 32C7.16344 32 0 24.8366 0 16C0 7.16344 7.16344 0 16 0C24.8366 0 32 7.16344 32 16ZM15.9983 8.88867C16.4892 8.88867 16.8872 9.28664 16.8872 9.77756V15.1113H22.224C22.7149 15.1113 23.1128 15.5093 23.1128 16.0002C23.1128 16.4911 22.7149 16.8891 22.224 16.8891H16.8872V22.222C16.8872 22.7129 16.4892 23.1109 15.9983 23.1109C15.5073 23.1109 15.1094 22.7129 15.1094 22.222V16.8891H9.77951C9.28859 16.8891 8.89062 16.4911 8.89062 16.0002C8.89062 15.5093 9.28859 15.1113 9.77951 15.1113H15.1094V9.77756C15.1094 9.28664 15.5073 8.88867 15.9983 8.88867Z" fill="#999999"/>
</svg>
