<svg width="32" height="32" viewBox="0 0 32 32" fill="none" xmlns="http://www.w3.org/2000/svg">
<path fill-rule="evenodd" clip-rule="evenodd" d="M30 16C30 23.732 23.732 30 16 30C8.26801 30 2 23.732 2 16C2 8.26801 8.26801 2 16 2C23.732 2 30 8.26801 30 16ZM32 16C32 24.8366 24.8366 32 16 32C7.16344 32 0 24.8366 0 16C0 7.16344 7.16344 0 16 0C24.8366 0 32 7.16344 32 16ZM21.1055 10.8927C21.4961 11.2832 21.4961 11.9163 21.1055 12.3069L17.4142 15.9982L21.1082 19.6922C21.4987 20.0827 21.4987 20.7159 21.1082 21.1064C20.7177 21.4969 20.0845 21.4969 19.694 21.1064L16 17.4124L12.306 21.1064C11.9155 21.4969 11.2823 21.4969 10.8918 21.1064C10.5013 20.7159 10.5013 20.0827 10.8918 19.6922L14.5858 15.9982L10.8945 12.3069C10.5039 11.9163 10.5039 11.2832 10.8945 10.8927C11.285 10.5021 11.9181 10.5021 12.3087 10.8927L16 14.584L19.6913 10.8927C20.0819 10.5021 20.715 10.5021 21.1055 10.8927Z" fill="#1C1C1C"/>
</svg>
