<svg width="52" height="52" viewBox="0 0 52 52" fill="none" xmlns="http://www.w3.org/2000/svg">
<circle cx="26" cy="26" r="26" fill="#111111"/>
<path d="M33.6719 17.3125C33.6719 17.4244 33.6274 17.5317 33.5483 17.6108C33.4692 17.6899 33.3619 17.7344 33.25 17.7344H28.75C28.6381 17.7344 28.5308 17.6899 28.4517 17.6108C28.3726 17.5317 28.3281 17.4244 28.3281 17.3125C28.3281 17.2006 28.3726 17.0933 28.4517 17.0142C28.5308 16.9351 28.6381 16.8906 28.75 16.8906H33.25C33.3619 16.8906 33.4692 16.9351 33.5483 17.0142C33.6274 17.0933 33.6719 17.2006 33.6719 17.3125ZM33.25 19.1406H28.75C28.6381 19.1406 28.5308 19.1851 28.4517 19.2642C28.3726 19.3433 28.3281 19.4506 28.3281 19.5625C28.3281 19.6744 28.3726 19.7817 28.4517 19.8608C28.5308 19.9399 28.6381 19.9844 28.75 19.9844H33.25C33.3619 19.9844 33.4692 19.9399 33.5483 19.8608C33.6274 19.7817 33.6719 19.6744 33.6719 19.5625C33.6719 19.4506 33.6274 19.3433 33.5483 19.2642C33.4692 19.1851 33.3619 19.1406 33.25 19.1406ZM38.1719 13.9375V22.9375C38.1719 23.1986 38.0682 23.449 37.8836 23.6336C37.699 23.8182 37.4486 23.9219 37.1875 23.9219H33.0039C32.9797 23.9229 32.9562 23.9299 32.9354 23.9421C32.9145 23.9544 32.897 23.9716 32.8844 23.9922L31.8437 25.7289C31.7563 25.8745 31.6326 25.995 31.4847 26.0786C31.3369 26.1623 31.1699 26.2063 31 26.2063C30.8301 26.2063 30.6631 26.1623 30.5153 26.0786C30.3674 25.995 30.2437 25.8745 30.1562 25.7289L29.1156 23.9922C29.103 23.9716 29.0855 23.9544 29.0646 23.9421C29.0438 23.9299 29.0203 23.9229 28.9961 23.9219H24.8125C24.5514 23.9219 24.301 23.8182 24.1164 23.6336C23.9318 23.449 23.8281 23.1986 23.8281 22.9375V13.9375C23.8281 13.6764 23.9318 13.426 24.1164 13.2414C24.301 13.0568 24.5514 12.9531 24.8125 12.9531H37.1875C37.4486 12.9531 37.699 13.0568 37.8836 13.2414C38.0682 13.426 38.1719 13.6764 38.1719 13.9375ZM37.3281 13.9375C37.3281 13.9002 37.3133 13.8644 37.2869 13.8381C37.2606 13.8117 37.2248 13.7969 37.1875 13.7969H24.8125C24.7752 13.7969 24.7394 13.8117 24.7131 13.8381C24.6867 13.8644 24.6719 13.9002 24.6719 13.9375V22.9375C24.6719 22.9748 24.6867 23.0106 24.7131 23.0369C24.7394 23.0633 24.7752 23.0781 24.8125 23.0781H28.9961C29.166 23.0782 29.3331 23.1223 29.4809 23.2061C29.6288 23.2899 29.7524 23.4105 29.8398 23.5563L30.8805 25.293C30.8916 25.3152 30.9086 25.3339 30.9297 25.3469C30.9508 25.36 30.9752 25.3669 31 25.3669C31.0248 25.3669 31.0492 25.36 31.0703 25.3469C31.0914 25.3339 31.1084 25.3152 31.1195 25.293L32.1602 23.5563C32.2476 23.4105 32.3712 23.2899 32.5191 23.2061C32.6669 23.1223 32.834 23.0782 33.0039 23.0781H37.1875C37.2248 23.0781 37.2606 23.0633 37.2869 23.0369C37.3133 23.0106 37.3281 22.9748 37.3281 22.9375V13.9375Z" fill="white"/>
<path d="M29.3333 37.1V39.6C29.3343 39.8321 29.2867 40.0618 29.1937 40.2745C29.1008 40.4871 28.9644 40.678 28.7934 40.8349C28.6224 40.9918 28.4205 41.1113 28.2006 41.1856C27.9808 41.26 27.7478 41.2876 27.5167 41.2667C24.9523 40.9881 22.4892 40.1118 20.325 38.7084C18.3115 37.4289 16.6044 35.7219 15.325 33.7084C13.9166 31.5344 13.0402 29.0592 12.7667 26.4834C12.7458 26.2529 12.7732 26.0207 12.8471 25.8014C12.9209 25.5821 13.0396 25.3806 13.1956 25.2097C13.3516 25.0388 13.5415 24.9023 13.7531 24.8088C13.9648 24.7153 14.1936 24.6669 14.425 24.6667H16.925C17.3294 24.6627 17.7215 24.8059 18.0281 25.0697C18.3348 25.3334 18.535 25.6996 18.5917 26.1C18.6972 26.9001 18.8929 27.6856 19.175 28.4417C19.2871 28.74 19.3114 29.0641 19.2449 29.3758C19.1784 29.6874 19.024 29.9735 18.8 30.2L17.7417 31.2584C18.9279 33.3447 20.6554 35.0721 22.7417 36.2584L23.8 35.2C24.0266 34.976 24.3126 34.8216 24.6243 34.7551C24.9359 34.6887 25.26 34.7129 25.5583 34.825C26.3144 35.1072 27.0999 35.3029 27.9 35.4084C28.3048 35.4655 28.6745 35.6694 28.9388 35.9813C29.203 36.2932 29.3435 36.6914 29.3333 37.1Z" stroke="white" stroke-linecap="round" stroke-linejoin="round"/>
</svg>
