<svg width="74" height="59" viewBox="0 0 74 59" fill="none" xmlns="http://www.w3.org/2000/svg">
<path d="M32.6788 39.305C32.6746 39.3688 32.6727 39.4312 32.6731 39.4922C32.6827 41.1734 34.8946 41.7123 36.3621 40.892C36.8792 40.603 37.3178 40.288 37.5945 40.1074C38.2585 39.674 40.772 37.6258 41.1107 36.9899C41.4494 36.3539 41.0517 35.5417 40.3108 35.645C39.5699 35.7482 32.787 37.6787 32.6788 39.305Z" fill="url(#paint0_linear_1479_18439)"/>
<path d="M32.6788 39.305C32.6746 39.3688 32.6727 39.4312 32.6731 39.4922C32.6827 41.1734 34.8946 41.7123 36.3621 40.892C36.8792 40.603 37.3178 40.288 37.5945 40.1074C38.2585 39.674 40.772 37.6258 41.1107 36.9899C41.4494 36.3539 41.0517 35.5417 40.3108 35.645C39.5699 35.7482 32.787 37.6787 32.6788 39.305Z" fill="url(#paint1_linear_1479_18439)"/>
<path d="M32.6219 39.0614C32.6177 39.1252 32.6158 39.1876 32.6162 39.2486C32.6258 40.9297 34.8377 41.4687 36.3052 40.6484C36.8223 40.3594 37.2609 40.0443 37.5376 39.8638C38.2017 39.4304 40.7151 37.3821 41.0538 36.7462C41.3926 36.1103 40.9948 35.2981 40.2539 35.4013C39.513 35.5046 32.7301 37.435 32.6219 39.0614Z" fill="url(#paint2_linear_1479_18439)"/>
<mask id="mask0_1479_18439" style="mask-type:alpha" maskUnits="userSpaceOnUse" x="32" y="35" width="10" height="7">
<path d="M32.6233 39.0609C32.619 39.1247 32.6172 39.1871 32.6175 39.2481C32.6271 40.9292 34.8391 41.4682 36.3066 40.6479C36.8237 40.3589 37.2622 40.0438 37.5389 39.8633C38.203 39.4299 40.7164 37.3816 41.0552 36.7457C41.3939 36.1098 40.9962 35.2976 40.2553 35.4008C39.5143 35.5041 32.7314 37.4345 32.6233 39.0609Z" fill="url(#paint3_linear_1479_18439)"/>
</mask>
<g mask="url(#mask0_1479_18439)">
<g opacity="0.2" filter="url(#filter0_f_1479_18439)">
<ellipse rx="1.22009" ry="4.14043" transform="matrix(-0.595344 -0.803264 0.802944 -0.596334 38.2872 38.6222)" fill="#6489DE"/>
</g>
</g>
<path d="M7.08661 36.1522C7.14808 36.1335 7.2087 36.1174 7.26845 36.1039C8.90614 35.7324 9.93116 37.7641 9.46796 39.3782C9.30392 39.9499 9.09615 40.4508 8.98296 40.7624C8.71205 41.5082 7.28979 44.4234 6.74798 44.898C6.20617 45.3726 5.32572 45.1692 5.25799 44.4234C5.19027 43.6776 5.5289 36.6268 7.08661 36.1522Z" fill="url(#paint4_linear_1479_18439)"/>
<path d="M7.08661 36.1522C7.14808 36.1335 7.2087 36.1174 7.26845 36.1039C8.90614 35.7324 9.93116 37.7641 9.46796 39.3782C9.30392 39.9499 9.09615 40.4508 8.98296 40.7624C8.71205 41.5082 7.28979 44.4234 6.74798 44.898C6.20617 45.3726 5.32572 45.1692 5.25799 44.4234C5.19027 43.6776 5.5289 36.6268 7.08661 36.1522Z" fill="url(#paint5_linear_1479_18439)"/>
<path d="M6.83661 36.1525C6.89808 36.1337 6.9587 36.1177 7.01845 36.1041C8.65614 35.7327 9.68116 37.7643 9.21796 39.3785C9.05392 39.9501 8.84615 40.4511 8.73296 40.7626C8.46205 41.5084 7.03979 44.4237 6.49798 44.8982C5.95617 45.3728 5.07572 45.1694 5.00799 44.4237C4.94027 43.6779 5.2789 36.627 6.83661 36.1525Z" fill="url(#paint6_linear_1479_18439)"/>
<mask id="mask1_1479_18439" style="mask-type:alpha" maskUnits="userSpaceOnUse" x="5" y="36" width="5" height="10">
<path d="M6.83661 36.1525C6.89808 36.1337 6.9587 36.1177 7.01845 36.1041C8.65614 35.7327 9.68116 37.7643 9.21796 39.3785C9.05392 39.9501 8.84615 40.4511 8.73296 40.7626C8.46205 41.5084 7.03979 44.4237 6.49798 44.8982C5.95617 45.3728 5.07572 45.1694 5.00799 44.4237C4.94027 43.6779 5.2789 36.627 6.83661 36.1525Z" fill="url(#paint7_linear_1479_18439)"/>
</mask>
<g mask="url(#mask1_1479_18439)">
<g opacity="0.2" filter="url(#filter1_f_1479_18439)">
<ellipse rx="1.21928" ry="4.1432" transform="matrix(-0.917232 -0.398352 -0.397662 0.917532 7.69462 41.7741)" fill="#6489DE"/>
</g>
</g>
<rect x="33.8512" y="20.8984" width="0.813557" height="6.91524" rx="0.406779" fill="url(#paint8_linear_1479_18439)"/>
<mask id="mask2_1479_18439" style="mask-type:alpha" maskUnits="userSpaceOnUse" x="32" y="26" width="4" height="5">
<path fill-rule="evenodd" clip-rule="evenodd" d="M35.6115 26.0513H32.7667V30.3902H35.2175C35.2389 30.1906 35.2769 29.996 35.3405 29.8476C35.5436 29.3731 36.0855 27.5428 35.6115 26.0513Z" fill="white"/>
</mask>
<g mask="url(#mask2_1479_18439)">
<rect x="30.7357" y="25.7798" width="7.17902" height="4.61016" fill="url(#paint9_linear_1479_18439)"/>
<rect x="34.6643" y="26.0508" width="1.76089" height="4.33897" rx="0.880446" fill="url(#paint10_linear_1479_18439)"/>
</g>
<path fill-rule="evenodd" clip-rule="evenodd" d="M29.1911 35.4067C31.7204 35.4067 34.1221 33.8005 34.1221 31.2712C34.1221 24.494 28.6338 19 21.8636 19C15.0934 19 9.6051 24.494 9.6051 31.2712C9.6051 33.8005 12.0068 35.4067 14.5361 35.4067H29.1911Z" fill="url(#paint11_linear_1479_18439)"/>
<path fill-rule="evenodd" clip-rule="evenodd" d="M27.5393 35.9485C30.9919 35.9485 34.1223 38.3064 34.1223 41.7591C34.1223 51.2807 28.6339 58.9995 21.8637 58.9995C15.0936 58.9995 9.60522 51.2807 9.60522 41.7591C9.60522 38.3064 12.7356 35.9485 16.1882 35.9485H27.5393Z" fill="url(#paint12_linear_1479_18439)"/>
<mask id="mask3_1479_18439" style="mask-type:alpha" maskUnits="userSpaceOnUse" x="9" y="35" width="26" height="24">
<path fill-rule="evenodd" clip-rule="evenodd" d="M27.5382 35.9492C30.9907 35.9492 34.1209 38.3071 34.1209 41.7595C34.1209 51.2812 28.6326 59 21.8624 59C15.0922 59 9.60388 51.2812 9.60388 41.7595C9.60388 38.3071 12.7341 35.9492 16.1866 35.9492H27.5382Z" fill="url(#paint13_linear_1479_18439)"/>
</mask>
<g mask="url(#mask3_1479_18439)">
<g opacity="0.2" filter="url(#filter2_f_1479_18439)">
<path d="M38.5037 34.3226C38.5037 33.3334 37.9649 32.6373 37.5427 32.2476C37.1176 31.8553 36.6078 31.5751 36.1435 31.3678C35.201 30.947 33.9673 30.6186 32.6044 30.3612C29.8443 29.8399 26.1194 29.5308 22.0657 29.5308C18.012 29.5308 14.2871 29.8399 11.527 30.3612C10.164 30.6186 8.93036 30.947 7.9879 31.3678C7.52362 31.5751 7.01374 31.8553 6.58864 32.2476C6.16648 32.6373 5.62772 33.3334 5.62772 34.3226C5.62772 35.3117 6.16648 36.0078 6.58864 36.3975C7.01374 36.7899 7.52362 37.07 7.9879 37.2773C8.93036 37.6982 10.164 38.0265 11.527 38.2839C14.2871 38.8052 18.012 39.1143 22.0657 39.1143C26.1194 39.1143 29.8443 38.8052 32.6044 38.2839C33.9673 38.0265 35.201 37.6982 36.1435 37.2773C36.6078 37.07 37.1176 36.7899 37.5427 36.3975C37.9649 36.0078 38.5037 35.3117 38.5037 34.3226Z" stroke="#6A84A4" stroke-width="4.15985"/>
</g>
<g opacity="0.1" filter="url(#filter3_f_1479_18439)">
<path d="M21.4566 53.5764C14.462 53.5764 8.7917 57.2492 8.7917 61.7798C8.7917 66.3104 14.462 69.9832 21.4566 69.9832C28.4512 69.9832 34.1215 66.3104 34.1215 61.7798C34.1215 57.2492 28.4512 53.5764 21.4566 53.5764Z" fill="#6489DE"/>
</g>
<g opacity="0.05" filter="url(#filter4_f_1479_18439)">
<path d="M21.8629 44.3562C16.2148 44.3562 11.6362 48.029 11.6362 52.5596C11.6362 57.0902 16.2148 60.7629 21.8629 60.7629C27.5109 60.7629 32.0896 57.0902 32.0896 52.5596C32.0896 48.029 27.5109 44.3562 21.8629 44.3562Z" fill="#6489DE"/>
</g>
</g>
<g filter="url(#filter5_i_1479_18439)">
<path d="M15.3389 24.8607C15.5117 23.8856 16.3229 23.1515 17.3114 23.0921C18.5506 23.0176 20.2382 22.933 21.5248 22.9324C22.8799 22.9317 24.6747 23.0235 25.9394 23.1005C26.8643 23.1568 27.6403 23.8071 27.8716 24.7043C28.2245 26.0731 27.1909 27.4069 25.7774 27.4069H17.4735C16.1248 27.4069 15.1035 26.1887 15.3389 24.8607Z" fill="#362DA8"/>
</g>
<path d="M15.8361 25.239C15.9983 24.3731 16.7543 23.7456 17.6353 23.7456H25.6309C26.4565 23.7456 27.1799 24.2982 27.397 25.0948C27.7144 26.2592 26.8378 27.4066 25.6309 27.4066H17.6353C16.4892 27.4066 15.625 26.3654 15.8361 25.239Z" fill="#192162"/>
<ellipse cx="19.0871" cy="25.5082" rx="1.21908" ry="1.22034" fill="#574CEC"/>
<ellipse cx="24.3693" cy="25.5084" rx="1.21908" ry="1.22034" fill="#574CEC"/>
<mask id="mask4_1479_18439" style="mask-type:alpha" maskUnits="userSpaceOnUse" x="9" y="20" width="25" height="16">
<rect x="9.60498" y="20.356" width="24.3816" height="15.0508" rx="7.5254" fill="white"/>
</mask>
<g mask="url(#mask4_1479_18439)">
<g opacity="0.3" filter="url(#filter6_f_1479_18439)">
<ellipse cx="19.0865" cy="25.5086" rx="1.48999" ry="1.49152" fill="#1300FF"/>
</g>
<g opacity="0.3" filter="url(#filter7_f_1479_18439)">
<ellipse cx="24.3695" cy="25.5086" rx="1.48999" ry="1.49152" fill="#1300FF"/>
</g>
<g opacity="0.3" filter="url(#filter8_f_1479_18439)">
<path d="M38.5048 35.8138C38.5048 34.8246 37.966 34.1285 37.5438 33.7389C37.1187 33.3465 36.6089 33.0663 36.1446 32.859C35.2021 32.4382 33.9684 32.1098 32.6055 31.8524C29.8454 31.3311 26.1205 31.022 22.0668 31.022C18.0131 31.022 14.2882 31.3311 11.5281 31.8524C10.1651 32.1098 8.93145 32.4382 7.989 32.859C7.52472 33.0663 7.01484 33.3465 6.58973 33.7389C6.16758 34.1285 5.62881 34.8246 5.62881 35.8138C5.62881 36.8029 6.16758 37.4991 6.58973 37.8887C7.01484 38.2811 7.52472 38.5612 7.989 38.7685C8.93145 39.1894 10.1651 39.5177 11.5281 39.7751C14.2882 40.2965 18.0131 40.6056 22.0668 40.6056C26.1205 40.6056 29.8454 40.2965 32.6055 39.7751C33.9684 39.5177 35.2021 39.1894 36.1446 38.7685C36.6089 38.5612 37.1187 38.2811 37.5438 37.8887C37.966 37.4991 38.5048 36.8029 38.5048 35.8138Z" stroke="#6A84A4" stroke-width="4.15985"/>
</g>
</g>
<g opacity="0.3" filter="url(#filter9_f_1479_18439)">
<ellipse cx="21.9842" cy="35.4064" rx="1.49152" ry="9.34628" transform="rotate(-90 21.9842 35.4064)" fill="#6A84A4"/>
</g>
<g opacity="0.4" filter="url(#filter10_f_1479_18439)">
<ellipse cx="22.0664" cy="35.4065" rx="0.677964" ry="6.63721" transform="rotate(-90 22.0664 35.4065)" fill="#6A84A4"/>
</g>
<ellipse cx="21.9994" cy="44.6945" rx="3.18315" ry="3.18643" fill="url(#paint14_linear_1479_18439)"/>
<path d="M23.9481 44.6944C23.9481 45.7724 23.0753 46.6451 22.0001 46.6451C20.9249 46.6451 20.0521 45.7724 20.0521 44.6944C20.0521 43.6163 20.9249 42.7436 22.0001 42.7436C23.0753 42.7436 23.9481 43.6163 23.9481 44.6944Z" fill="#8279FF" stroke="url(#paint15_linear_1479_18439)" stroke-width="1.38662"/>
<g filter="url(#filter11_f_1479_18439)">
<path d="M23.8117 44.6947C23.8117 45.6979 22.9996 46.5099 21.9992 46.5099C20.9988 46.5099 20.1866 45.6979 20.1866 44.6947C20.1866 43.6916 20.9988 42.8796 21.9992 42.8796C22.9996 42.8796 23.8117 43.6916 23.8117 44.6947Z" stroke="url(#paint16_linear_1479_18439)" stroke-width="1.38662"/>
</g>
<rect x="21.5386" y="42.9128" width="0.992566" height="3.40229" rx="0.496283" fill="#9D96FF"/>
<rect x="23.7341" y="44.1172" width="0.993589" height="3.39879" rx="0.496794" transform="rotate(90 23.7341 44.1172)" fill="#9D96FF"/>
<g opacity="0.3" filter="url(#filter12_f_1479_18439)">
<path fill-rule="evenodd" clip-rule="evenodd" d="M22.0253 43.0881C21.7789 43.0881 21.5791 43.2879 21.5791 43.5344V44.1697H20.9459C20.6994 44.1697 20.4996 44.3695 20.4996 44.6159C20.4996 44.8624 20.6994 45.0621 20.9459 45.0621H21.5791V45.6979C21.5791 45.9444 21.7789 46.1442 22.0253 46.1442C22.2718 46.1442 22.4716 45.9444 22.4716 45.6979V45.0621H23.1063C23.3527 45.0621 23.5525 44.8624 23.5525 44.6159C23.5525 44.3695 23.3527 44.1697 23.1063 44.1697H22.4716V43.5344C22.4716 43.2879 22.2718 43.0881 22.0253 43.0881Z" fill="#FCFCFA"/>
</g>
<g opacity="0.3" filter="url(#filter13_f_1479_18439)">
<path fill-rule="evenodd" clip-rule="evenodd" d="M22.0082 43.5208C21.8036 43.5208 21.6378 43.6866 21.6378 43.8911C21.6378 44.1266 21.447 44.3174 21.2116 44.3174H21.0691C20.8876 44.3174 20.7405 44.4645 20.7405 44.646C20.7405 44.8275 20.8876 44.9746 21.0691 44.9746H21.2115C21.4469 44.9746 21.6378 45.1655 21.6378 45.401C21.6378 45.6055 21.8036 45.7714 22.0082 45.7714C22.2128 45.7714 22.3786 45.6055 22.3786 45.401C22.3786 45.1655 22.5695 44.9746 22.8049 44.9746H22.9459C23.1274 44.9746 23.2745 44.8275 23.2745 44.646C23.2745 44.4645 23.1274 44.3174 22.9459 44.3174H22.8048C22.5694 44.3174 22.3786 44.1266 22.3786 43.8911C22.3786 43.6866 22.2128 43.5208 22.0082 43.5208Z" fill="#FCFCFA"/>
</g>
<g filter="url(#filter14_d_1479_18439)">
<path fill-rule="evenodd" clip-rule="evenodd" d="M58.5366 23.7317C66.3068 22.356 72 17.886 72 12.5841C72 6.18637 63.7103 1 53.4846 1C43.2588 1 34.9691 6.18637 34.9691 12.5841C34.9691 18.6207 42.3494 23.5788 51.7727 24.1193L49.303 28.3302L58.5366 23.7317Z" fill="#1C5BD9"/>
</g>
<path d="M49.5446 11.08C49.1073 11.08 48.7046 11.0107 48.3366 10.872C47.974 10.728 47.6566 10.528 47.3846 10.272C47.1126 10.0107 46.902 9.704 46.7526 9.352C46.6033 9 46.5286 8.616 46.5286 8.2C46.5286 7.784 46.6033 7.4 46.7526 7.048C46.902 6.696 47.1126 6.392 47.3846 6.136C47.662 5.87467 47.9846 5.67467 48.3526 5.536C48.7206 5.392 49.1233 5.32 49.5606 5.32C50.0353 5.32 50.462 5.39733 50.8406 5.552C51.2246 5.70667 51.5473 5.93333 51.8086 6.232L51.1526 6.872C50.934 6.65333 50.6966 6.49333 50.4406 6.392C50.19 6.28533 49.9126 6.232 49.6086 6.232C49.3153 6.232 49.0433 6.28 48.7926 6.376C48.542 6.472 48.326 6.608 48.1446 6.784C47.9633 6.96 47.822 7.168 47.7206 7.408C47.6246 7.648 47.5766 7.912 47.5766 8.2C47.5766 8.48267 47.6246 8.744 47.7206 8.984C47.822 9.224 47.9633 9.43467 48.1446 9.616C48.326 9.792 48.5393 9.928 48.7846 10.024C49.03 10.12 49.302 10.168 49.6006 10.168C49.878 10.168 50.1446 10.1253 50.4006 10.04C50.662 9.94933 50.91 9.8 51.1446 9.592L51.7366 10.368C51.4433 10.6027 51.102 10.7813 50.7126 10.904C50.3286 11.0213 49.9393 11.08 49.5446 11.08ZM50.7526 10.232V8.136H51.7366V10.368L50.7526 10.232ZM55.0203 11.056C54.5456 11.056 54.1296 10.9627 53.7723 10.776C53.4203 10.584 53.1456 10.3227 52.9483 9.992C52.7563 9.66133 52.6603 9.28533 52.6603 8.864C52.6603 8.43733 52.7536 8.06133 52.9403 7.736C53.1323 7.40533 53.3936 7.14667 53.7243 6.96C54.0603 6.77333 54.4416 6.68 54.8683 6.68C55.2843 6.68 55.655 6.77067 55.9803 6.952C56.3056 7.13333 56.5616 7.38933 56.7483 7.72C56.935 8.05067 57.0283 8.44 57.0283 8.888C57.0283 8.93067 57.0256 8.97867 57.0203 9.032C57.0203 9.08533 57.0176 9.136 57.0123 9.184H53.4523V8.52H56.4843L56.0923 8.728C56.0976 8.48267 56.047 8.26667 55.9403 8.08C55.8336 7.89333 55.687 7.74667 55.5003 7.64C55.319 7.53333 55.1083 7.48 54.8683 7.48C54.623 7.48 54.407 7.53333 54.2203 7.64C54.039 7.74667 53.895 7.896 53.7883 8.088C53.687 8.27467 53.6363 8.496 53.6363 8.752V8.912C53.6363 9.168 53.695 9.39467 53.8123 9.592C53.9296 9.78933 54.095 9.94133 54.3083 10.048C54.5216 10.1547 54.767 10.208 55.0443 10.208C55.2843 10.208 55.5003 10.1707 55.6923 10.096C55.8843 10.0213 56.055 9.904 56.2043 9.744L56.7403 10.36C56.5483 10.584 56.3056 10.7573 56.0123 10.88C55.7243 10.9973 55.3936 11.056 55.0203 11.056ZM59.5969 11.056C59.1275 11.056 58.7649 10.936 58.5089 10.696C58.2529 10.4507 58.1249 10.0907 58.1249 9.616V5.784H59.1249V9.592C59.1249 9.79467 59.1755 9.952 59.2769 10.064C59.3835 10.176 59.5302 10.232 59.7169 10.232C59.9409 10.232 60.1275 10.1733 60.2769 10.056L60.5569 10.768C60.4395 10.864 60.2955 10.936 60.1249 10.984C59.9542 11.032 59.7782 11.056 59.5969 11.056ZM57.4209 7.56V6.76H60.2689V7.56H57.4209ZM47.4012 15.68C47.7425 15.68 48.0465 15.7467 48.3132 15.88C48.5852 16.0133 48.7985 16.2187 48.9532 16.496C49.1078 16.768 49.1852 17.12 49.1852 17.552V20H48.1852V17.68C48.1852 17.3013 48.0945 17.0187 47.9132 16.832C47.7372 16.6453 47.4892 16.552 47.1692 16.552C46.9345 16.552 46.7265 16.6 46.5452 16.696C46.3638 16.792 46.2225 16.936 46.1212 17.128C46.0252 17.3147 45.9772 17.552 45.9772 17.84V20H44.9772V14.064H45.9772V16.88L45.7612 16.528C45.9105 16.256 46.1265 16.048 46.4092 15.904C46.6972 15.7547 47.0278 15.68 47.4012 15.68ZM52.4695 20.056C51.9949 20.056 51.5789 19.9627 51.2215 19.776C50.8695 19.584 50.5949 19.3227 50.3975 18.992C50.2055 18.6613 50.1095 18.2853 50.1095 17.864C50.1095 17.4373 50.2029 17.0613 50.3895 16.736C50.5815 16.4053 50.8429 16.1467 51.1735 15.96C51.5095 15.7733 51.8909 15.68 52.3175 15.68C52.7335 15.68 53.1042 15.7707 53.4295 15.952C53.7549 16.1333 54.0109 16.3893 54.1975 16.72C54.3842 17.0507 54.4775 17.44 54.4775 17.888C54.4775 17.9307 54.4749 17.9787 54.4695 18.032C54.4695 18.0853 54.4669 18.136 54.4615 18.184H50.9015V17.52H53.9335L53.5415 17.728C53.5469 17.4827 53.4962 17.2667 53.3895 17.08C53.2829 16.8933 53.1362 16.7467 52.9495 16.64C52.7682 16.5333 52.5575 16.48 52.3175 16.48C52.0722 16.48 51.8562 16.5333 51.6695 16.64C51.4882 16.7467 51.3442 16.896 51.2375 17.088C51.1362 17.2747 51.0855 17.496 51.0855 17.752V17.912C51.0855 18.168 51.1442 18.3947 51.2615 18.592C51.3789 18.7893 51.5442 18.9413 51.7575 19.048C51.9709 19.1547 52.2162 19.208 52.4935 19.208C52.7335 19.208 52.9495 19.1707 53.1415 19.096C53.3335 19.0213 53.5042 18.904 53.6535 18.744L54.1895 19.36C53.9975 19.584 53.7549 19.7573 53.4615 19.88C53.1735 19.9973 52.8429 20.056 52.4695 20.056ZM55.4381 20V14.064H56.4381V20H55.4381ZM60.1186 20.056C59.7719 20.056 59.4546 19.976 59.1666 19.816C58.8839 19.656 58.6573 19.416 58.4866 19.096C58.3213 18.7707 58.2386 18.36 58.2386 17.864C58.2386 17.3627 58.3186 16.952 58.4786 16.632C58.6439 16.312 58.8679 16.0747 59.1506 15.92C59.4333 15.76 59.7559 15.68 60.1186 15.68C60.5399 15.68 60.9106 15.7707 61.2306 15.952C61.5559 16.1333 61.8119 16.3867 61.9986 16.712C62.1906 17.0373 62.2866 17.4213 62.2866 17.864C62.2866 18.3067 62.1906 18.6933 61.9986 19.024C61.8119 19.3493 61.5559 19.6027 61.2306 19.784C60.9106 19.9653 60.5399 20.056 60.1186 20.056ZM57.7506 21.552V15.728H58.7026V16.736L58.6706 17.872L58.7506 19.008V21.552H57.7506ZM60.0066 19.2C60.2466 19.2 60.4599 19.1467 60.6466 19.04C60.8386 18.9333 60.9906 18.7787 61.1026 18.576C61.2146 18.3733 61.2706 18.136 61.2706 17.864C61.2706 17.5867 61.2146 17.3493 61.1026 17.152C60.9906 16.9493 60.8386 16.7947 60.6466 16.688C60.4599 16.5813 60.2466 16.528 60.0066 16.528C59.7666 16.528 59.5506 16.5813 59.3586 16.688C59.1666 16.7947 59.0146 16.9493 58.9026 17.152C58.7906 17.3493 58.7346 17.5867 58.7346 17.864C58.7346 18.136 58.7906 18.3733 58.9026 18.576C59.0146 18.7787 59.1666 18.9333 59.3586 19.04C59.5506 19.1467 59.7666 19.2 60.0066 19.2Z" fill="white"/>
<defs>
<filter id="filter0_f_1479_18439" x="29.3371" y="30.4186" width="17.9003" height="16.4071" filterUnits="userSpaceOnUse" color-interpolation-filters="sRGB">
<feFlood flood-opacity="0" result="BackgroundImageFix"/>
<feBlend mode="normal" in="SourceGraphic" in2="BackgroundImageFix" result="shape"/>
<feGaussianBlur stdDeviation="2.77324" result="effect1_foregroundBlur_1479_18439"/>
</filter>
<filter id="filter1_f_1479_18439" x="0.156655" y="32.3947" width="15.076" height="18.7587" filterUnits="userSpaceOnUse" color-interpolation-filters="sRGB">
<feFlood flood-opacity="0" result="BackgroundImageFix"/>
<feBlend mode="normal" in="SourceGraphic" in2="BackgroundImageFix" result="shape"/>
<feGaussianBlur stdDeviation="2.77324" result="effect1_foregroundBlur_1479_18439"/>
</filter>
<filter id="filter2_f_1479_18439" x="-6.15859" y="17.7446" width="56.4485" height="33.1561" filterUnits="userSpaceOnUse" color-interpolation-filters="sRGB">
<feFlood flood-opacity="0" result="BackgroundImageFix"/>
<feBlend mode="normal" in="SourceGraphic" in2="BackgroundImageFix" result="shape"/>
<feGaussianBlur stdDeviation="4.85316" result="effect1_foregroundBlur_1479_18439"/>
</filter>
<filter id="filter3_f_1479_18439" x="-23.1005" y="21.6842" width="89.1141" height="80.1911" filterUnits="userSpaceOnUse" color-interpolation-filters="sRGB">
<feFlood flood-opacity="0" result="BackgroundImageFix"/>
<feBlend mode="normal" in="SourceGraphic" in2="BackgroundImageFix" result="shape"/>
<feGaussianBlur stdDeviation="15.9461" result="effect1_foregroundBlur_1479_18439"/>
</filter>
<filter id="filter4_f_1479_18439" x="-20.2561" y="12.464" width="84.2379" height="80.1911" filterUnits="userSpaceOnUse" color-interpolation-filters="sRGB">
<feFlood flood-opacity="0" result="BackgroundImageFix"/>
<feBlend mode="normal" in="SourceGraphic" in2="BackgroundImageFix" result="shape"/>
<feGaussianBlur stdDeviation="15.9461" result="effect1_foregroundBlur_1479_18439"/>
</filter>
<filter id="filter5_i_1479_18439" x="15.3049" y="22.9324" width="12.6362" height="5.86123" filterUnits="userSpaceOnUse" color-interpolation-filters="sRGB">
<feFlood flood-opacity="0" result="BackgroundImageFix"/>
<feBlend mode="normal" in="SourceGraphic" in2="BackgroundImageFix" result="shape"/>
<feColorMatrix in="SourceAlpha" type="matrix" values="0 0 0 0 0 0 0 0 0 0 0 0 0 0 0 0 0 0 127 0" result="hardAlpha"/>
<feOffset dy="1.38662"/>
<feGaussianBlur stdDeviation="1.38662"/>
<feComposite in2="hardAlpha" operator="arithmetic" k2="-1" k3="1"/>
<feColorMatrix type="matrix" values="0 0 0 0 0 0 0 0 0 0 0 0 0 0 0 0 0 0 0.25 0"/>
<feBlend mode="normal" in2="shape" result="effect1_innerShadow_1479_18439"/>
</filter>
<filter id="filter6_f_1479_18439" x="14.8233" y="21.2439" width="8.52645" height="8.52962" filterUnits="userSpaceOnUse" color-interpolation-filters="sRGB">
<feFlood flood-opacity="0" result="BackgroundImageFix"/>
<feBlend mode="normal" in="SourceGraphic" in2="BackgroundImageFix" result="shape"/>
<feGaussianBlur stdDeviation="1.38662" result="effect1_foregroundBlur_1479_18439"/>
</filter>
<filter id="filter7_f_1479_18439" x="20.1063" y="21.2439" width="8.52645" height="8.52962" filterUnits="userSpaceOnUse" color-interpolation-filters="sRGB">
<feFlood flood-opacity="0" result="BackgroundImageFix"/>
<feBlend mode="normal" in="SourceGraphic" in2="BackgroundImageFix" result="shape"/>
<feGaussianBlur stdDeviation="1.38662" result="effect1_foregroundBlur_1479_18439"/>
</filter>
<filter id="filter8_f_1479_18439" x="-6.1575" y="19.2358" width="56.4485" height="33.1561" filterUnits="userSpaceOnUse" color-interpolation-filters="sRGB">
<feFlood flood-opacity="0" result="BackgroundImageFix"/>
<feBlend mode="normal" in="SourceGraphic" in2="BackgroundImageFix" result="shape"/>
<feGaussianBlur stdDeviation="4.85316" result="effect1_foregroundBlur_1479_18439"/>
</filter>
<filter id="filter9_f_1479_18439" x="2.93162" y="24.2085" width="38.1052" height="22.3958" filterUnits="userSpaceOnUse" color-interpolation-filters="sRGB">
<feFlood flood-opacity="0" result="BackgroundImageFix"/>
<feBlend mode="normal" in="SourceGraphic" in2="BackgroundImageFix" result="shape"/>
<feGaussianBlur stdDeviation="4.85316" result="effect1_foregroundBlur_1479_18439"/>
</filter>
<filter id="filter10_f_1479_18439" x="0.176407" y="19.4757" width="43.78" height="31.8615" filterUnits="userSpaceOnUse" color-interpolation-filters="sRGB">
<feFlood flood-opacity="0" result="BackgroundImageFix"/>
<feBlend mode="normal" in="SourceGraphic" in2="BackgroundImageFix" result="shape"/>
<feGaussianBlur stdDeviation="7.6264" result="effect1_foregroundBlur_1479_18439"/>
</filter>
<filter id="filter11_f_1479_18439" x="18.1067" y="40.7997" width="7.78495" height="7.79008" filterUnits="userSpaceOnUse" color-interpolation-filters="sRGB">
<feFlood flood-opacity="0" result="BackgroundImageFix"/>
<feBlend mode="normal" in="SourceGraphic" in2="BackgroundImageFix" result="shape"/>
<feGaussianBlur stdDeviation="0.693309" result="effect1_foregroundBlur_1479_18439"/>
</filter>
<filter id="filter12_f_1479_18439" x="19.6529" y="42.2414" width="4.74632" height="4.74961" filterUnits="userSpaceOnUse" color-interpolation-filters="sRGB">
<feFlood flood-opacity="0" result="BackgroundImageFix"/>
<feBlend mode="normal" in="SourceGraphic" in2="BackgroundImageFix" result="shape"/>
<feGaussianBlur stdDeviation="0.423365" result="effect1_foregroundBlur_1479_18439"/>
</filter>
<filter id="filter13_f_1479_18439" x="17.5845" y="40.3648" width="8.84605" height="8.56273" filterUnits="userSpaceOnUse" color-interpolation-filters="sRGB">
<feFlood flood-opacity="0" result="BackgroundImageFix"/>
<feBlend mode="normal" in="SourceGraphic" in2="BackgroundImageFix" result="shape"/>
<feGaussianBlur stdDeviation="1.578" result="effect1_foregroundBlur_1479_18439"/>
</filter>
<filter id="filter14_d_1479_18439" x="32.9691" y="0" width="41.0309" height="31.3303" filterUnits="userSpaceOnUse" color-interpolation-filters="sRGB">
<feFlood flood-opacity="0" result="BackgroundImageFix"/>
<feColorMatrix in="SourceAlpha" type="matrix" values="0 0 0 0 0 0 0 0 0 0 0 0 0 0 0 0 0 0 127 0" result="hardAlpha"/>
<feOffset dy="1"/>
<feGaussianBlur stdDeviation="1"/>
<feComposite in2="hardAlpha" operator="out"/>
<feColorMatrix type="matrix" values="0 0 0 0 0 0 0 0 0 0 0 0 0 0 0 0 0 0 0.15 0"/>
<feBlend mode="normal" in2="BackgroundImageFix" result="effect1_dropShadow_1479_18439"/>
<feBlend mode="normal" in="SourceGraphic" in2="effect1_dropShadow_1479_18439" result="shape"/>
</filter>
<linearGradient id="paint0_linear_1479_18439" x1="36.5021" y1="43.9286" x2="35.0423" y2="38.0812" gradientUnits="userSpaceOnUse">
<stop offset="0.0176794" stop-color="#8FA7E4"/>
<stop offset="1" stop-color="white"/>
</linearGradient>
<linearGradient id="paint1_linear_1479_18439" x1="37.2524" y1="40.9314" x2="35.3332" y2="32.9808" gradientUnits="userSpaceOnUse">
<stop stop-color="#819BE0"/>
<stop offset="0.571374" stop-color="white"/>
<stop offset="1" stop-color="white" stop-opacity="0"/>
</linearGradient>
<linearGradient id="paint2_linear_1479_18439" x1="36.4452" y1="43.685" x2="34.9854" y2="37.8375" gradientUnits="userSpaceOnUse">
<stop offset="0.0176794" stop-color="#8FA7E4"/>
<stop offset="1" stop-color="white"/>
</linearGradient>
<linearGradient id="paint3_linear_1479_18439" x1="36.4466" y1="43.6845" x2="34.9868" y2="37.837" gradientUnits="userSpaceOnUse">
<stop offset="0.0176794" stop-color="#8FA7E4"/>
<stop offset="1" stop-color="white"/>
</linearGradient>
<linearGradient id="paint4_linear_1479_18439" x1="12.4527" y1="38.8301" x2="6.43233" y2="38.7373" gradientUnits="userSpaceOnUse">
<stop offset="0.0176794" stop-color="#8FA7E4"/>
<stop offset="1" stop-color="white"/>
</linearGradient>
<linearGradient id="paint5_linear_1479_18439" x1="9.70703" y1="40.2419" x2="1.53619" y2="40.1793" gradientUnits="userSpaceOnUse">
<stop stop-color="#819BE0"/>
<stop offset="0.571374" stop-color="white"/>
<stop offset="1" stop-color="white" stop-opacity="0"/>
</linearGradient>
<linearGradient id="paint6_linear_1479_18439" x1="12.2027" y1="38.8304" x2="6.18233" y2="38.7375" gradientUnits="userSpaceOnUse">
<stop offset="0.0176794" stop-color="#8FA7E4"/>
<stop offset="1" stop-color="white"/>
</linearGradient>
<linearGradient id="paint7_linear_1479_18439" x1="12.2027" y1="38.8304" x2="6.18233" y2="38.7375" gradientUnits="userSpaceOnUse">
<stop offset="0.0176794" stop-color="#8FA7E4"/>
<stop offset="1" stop-color="white"/>
</linearGradient>
<linearGradient id="paint8_linear_1479_18439" x1="33.8512" y1="24.0849" x2="35.2749" y2="24.0849" gradientUnits="userSpaceOnUse">
<stop stop-color="#819BE0"/>
<stop offset="0.589912" stop-color="white"/>
<stop offset="1" stop-color="white" stop-opacity="0"/>
</linearGradient>
<linearGradient id="paint9_linear_1479_18439" x1="35.1056" y1="30.2543" x2="34.9369" y2="23.5373" gradientUnits="userSpaceOnUse">
<stop stop-color="#819BE0"/>
<stop offset="0.571374" stop-color="white"/>
<stop offset="1" stop-color="white" stop-opacity="0"/>
</linearGradient>
<linearGradient id="paint10_linear_1479_18439" x1="34.6643" y1="28.0501" x2="37.8925" y2="28.0296" gradientUnits="userSpaceOnUse">
<stop stop-color="#819BE0"/>
<stop offset="0.571374" stop-color="white"/>
<stop offset="1" stop-color="white" stop-opacity="0"/>
</linearGradient>
<linearGradient id="paint11_linear_1479_18439" x1="-5.49794" y1="24.0169" x2="27.5528" y2="22.4608" gradientUnits="userSpaceOnUse">
<stop offset="0.0176794" stop-color="#8FA7E4"/>
<stop offset="1" stop-color="white"/>
</linearGradient>
<linearGradient id="paint12_linear_1479_18439" x1="-5.49782" y1="51.9509" x2="27.589" y2="53.0597" gradientUnits="userSpaceOnUse">
<stop offset="0.0176794" stop-color="#8FA7E4"/>
<stop offset="1" stop-color="white"/>
</linearGradient>
<linearGradient id="paint13_linear_1479_18439" x1="-5.49916" y1="51.9514" x2="27.5877" y2="53.0602" gradientUnits="userSpaceOnUse">
<stop offset="0.0176794" stop-color="#8FA7E4"/>
<stop offset="1" stop-color="white"/>
</linearGradient>
<linearGradient id="paint14_linear_1479_18439" x1="18.8163" y1="44.4446" x2="29.9573" y2="44.4446" gradientUnits="userSpaceOnUse">
<stop stop-color="#819BE0"/>
<stop offset="0.589912" stop-color="white"/>
<stop offset="1" stop-color="white" stop-opacity="0"/>
</linearGradient>
<linearGradient id="paint15_linear_1479_18439" x1="24.6414" y1="45.0333" x2="19.3587" y2="44.7627" gradientUnits="userSpaceOnUse">
<stop stop-color="#6157EB"/>
<stop offset="1" stop-opacity="0"/>
</linearGradient>
<linearGradient id="paint16_linear_1479_18439" x1="24.5051" y1="45.0163" x2="19.4933" y2="44.7596" gradientUnits="userSpaceOnUse">
<stop stop-color="#6157EB"/>
<stop offset="1" stop-opacity="0"/>
</linearGradient>
</defs>
</svg>
