<svg width="84" height="30" viewBox="0 0 84 30" fill="none" xmlns="http://www.w3.org/2000/svg">
<path d="M0.375 13.9219C0.375 12.7656 0.515625 11.6094 0.796875 10.4531C1.07812 9.29688 1.46094 8.17969 1.94531 7.10156C2.42969 6.00781 3 4.96094 3.65625 3.96094C4.32812 2.96094 5.03906 2.03906 5.78906 1.19531C5.80469 1.19531 5.83594 1.19531 5.88281 1.19531C5.92969 1.17969 5.96094 1.17188 5.97656 1.17188C6.14844 1.17188 6.26562 1.24219 6.32812 1.38281C6.39062 1.50781 6.42188 1.64844 6.42188 1.80469C6.42188 1.83594 6.42188 1.89062 6.42188 1.96875C6.42188 2.03125 6.42188 2.07812 6.42188 2.10938C5.71875 2.95312 5.07031 3.83594 4.47656 4.75781C3.88281 5.66406 3.36719 6.60938 2.92969 7.59375C2.50781 8.57812 2.17188 9.60156 1.92188 10.6641C1.6875 11.7109 1.57031 12.7891 1.57031 13.8984C1.57031 14.6016 1.65625 15.3203 1.82812 16.0547C2.01562 16.7891 2.28906 17.4766 2.64844 18.1172C3.02344 18.7578 3.49219 19.3125 4.05469 19.7812C4.63281 20.25 5.32031 20.5547 6.11719 20.6953C5.86719 20.8203 5.65625 20.9062 5.48438 20.9531C5.32812 21 5.13281 21.0234 4.89844 21.0234C4.39844 21.0234 3.9375 20.8984 3.51562 20.6484C3.10938 20.3984 2.74219 20.0703 2.41406 19.6641C2.08594 19.2578 1.78906 18.8047 1.52344 18.3047C1.27344 17.7891 1.0625 17.2656 0.890625 16.7344C0.71875 16.2031 0.585938 15.6953 0.492188 15.2109C0.414062 14.7109 0.375 14.2812 0.375 13.9219ZM9.42188 20.6953C9.09375 18.2266 8.89062 15.6797 8.8125 13.0547C8.73438 10.4141 8.73438 7.86719 8.8125 5.41406C8.67188 5.49219 8.54688 5.5625 8.4375 5.625C8.32812 5.6875 8.19531 5.71875 8.03906 5.71875C7.92969 5.71875 7.82812 5.67188 7.73438 5.57812C7.64062 5.48438 7.59375 5.36719 7.59375 5.22656V5.15625C7.59375 5.14062 7.60156 5.11719 7.61719 5.08594C7.74219 4.94531 7.89062 4.70312 8.0625 4.35938C8.25 4.01562 8.44531 3.67969 8.64844 3.35156C8.85156 3.00781 9.04688 2.71094 9.23438 2.46094C9.42188 2.19531 9.58594 2.0625 9.72656 2.0625C9.86719 2.0625 9.96875 2.10156 10.0312 2.17969C10.1094 2.24219 10.1719 2.32031 10.2188 2.41406C10.2656 2.50781 10.3125 2.61719 10.3594 2.74219C10.4219 2.85156 10.5078 2.9375 10.6172 3C11.0859 2.71875 11.6016 2.47656 12.1641 2.27344C12.7266 2.07031 13.2891 1.92969 13.8516 1.85156C14.4297 1.77344 14.9844 1.76562 15.5156 1.82812C16.0625 1.875 16.5547 2.00781 16.9922 2.22656C17.4297 2.42969 17.8047 2.72656 18.1172 3.11719C18.4297 3.50781 18.6328 4 18.7266 4.59375C18.7109 5.35938 18.4844 6.08594 18.0469 6.77344C17.625 7.44531 17.0938 8.0625 16.4531 8.625C15.8281 9.17188 15.1484 9.66406 14.4141 10.1016C13.6797 10.5234 13 10.8906 12.375 11.2031C11.7656 11.5156 11.2578 11.7656 10.8516 11.9531C10.4609 12.1406 10.2812 12.25 10.3125 12.2812V20.6953C10.3125 20.8203 10.2578 20.9062 10.1484 20.9531C10.0391 21 9.9375 21.0234 9.84375 21.0234C9.67188 21.0234 9.53125 20.9141 9.42188 20.6953ZM10.3125 4.5C10.2656 4.95312 10.2031 5.45312 10.125 6C10.0625 6.53125 10.0156 7.08594 9.98438 7.66406C9.95312 8.22656 9.95312 8.78125 9.98438 9.32812C10.0312 9.875 10.1406 10.3672 10.3125 10.8047C10.9844 10.5078 11.6875 10.1797 12.4219 9.82031C13.1562 9.44531 13.8594 9.02344 14.5312 8.55469C15.2031 8.08594 15.8047 7.57031 16.3359 7.00781C16.8828 6.42969 17.2891 5.78906 17.5547 5.08594C17.5547 4.71094 17.4141 4.39062 17.1328 4.125C16.8672 3.85938 16.5391 3.64062 16.1484 3.46875C15.7578 3.29688 15.3516 3.17969 14.9297 3.11719C14.5234 3.03906 14.1875 3 13.9219 3C13.7656 3 13.5078 3.04688 13.1484 3.14062C12.8047 3.21875 12.4375 3.32812 12.0469 3.46875C11.6719 3.59375 11.3125 3.75 10.9688 3.9375C10.6406 4.125 10.4219 4.3125 10.3125 4.5ZM19.8281 9.70312V9.51562C19.8281 9.35938 19.8828 9.25 19.9922 9.1875C20.1172 9.125 20.2578 9.09375 20.4141 9.09375C20.5391 9.09375 20.6562 9.10938 20.7656 9.14062C20.875 9.15625 20.9609 9.24219 21.0234 9.39844C21.0703 9.63281 21.1172 9.96094 21.1641 10.3828C21.2109 10.7891 21.2656 11.2422 21.3281 11.7422C21.3906 12.2422 21.4531 12.7734 21.5156 13.3359C21.5938 13.8828 21.6641 14.4062 21.7266 14.9062C21.8047 15.3906 21.8828 15.8281 21.9609 16.2188C22.0391 16.6094 22.125 16.9062 22.2188 17.1094C22.1719 15.6094 22.2188 14.3125 22.3594 13.2188C22.5 12.1094 22.7656 11.2109 23.1562 10.5234C23.5625 9.82031 24.1094 9.33594 24.7969 9.07031C25.5 8.78906 26.375 8.72656 27.4219 8.88281C27.9062 8.88281 28.1484 9.14062 28.1484 9.65625C28.1484 9.85938 28.0156 10 27.75 10.0781C27.4844 10.1406 27.1875 10.1875 26.8594 10.2188C26.5312 10.2344 26.2109 10.2578 25.8984 10.2891C25.5859 10.3203 25.3594 10.3984 25.2188 10.5234C24.6562 10.8359 24.2578 11.3203 24.0234 11.9766C23.8047 12.6328 23.6484 13.4062 23.5547 14.2969C23.4609 15.1875 23.3906 16.1641 23.3438 17.2266C23.3125 18.2734 23.2109 19.3516 23.0391 20.4609C23.0391 20.6172 22.9766 20.7344 22.8516 20.8125C22.7266 20.8906 22.5703 20.9297 22.3828 20.9297C22.2109 20.9297 22.0391 20.8906 21.8672 20.8125C21.7109 20.7344 21.5859 20.6172 21.4922 20.4609L19.8281 9.70312ZM29.7188 20.5312C29.7188 19.5156 29.6953 18.4453 29.6484 17.3203C29.6172 16.1953 29.5781 15.0625 29.5312 13.9219C29.5 12.7656 29.4922 11.6328 29.5078 10.5234C29.5234 9.41406 29.5938 8.375 29.7188 7.40625C29.75 7.39062 29.8203 7.38281 29.9297 7.38281C30.0547 7.36719 30.1406 7.35938 30.1875 7.35938C30.4062 7.35938 30.5781 7.39844 30.7031 7.47656C30.8438 7.53906 30.9141 7.6875 30.9141 7.92188C30.9141 8.84375 30.9062 9.85156 30.8906 10.9453C30.8906 12.0234 30.8828 13.125 30.8672 14.25C30.8672 15.3594 30.8672 16.4609 30.8672 17.5547C30.8672 18.6484 30.8828 19.6406 30.9141 20.5312C30.9297 20.7969 30.875 20.9688 30.75 21.0469C30.6406 21.1406 30.5 21.1875 30.3281 21.1875C30.1406 21.1875 29.9844 21.1406 29.8594 21.0469C29.7344 20.9688 29.6875 20.7969 29.7188 20.5312ZM29.2031 3.75C29.2031 3.5625 29.2656 3.4375 29.3906 3.375C29.5156 3.3125 29.6562 3.28125 29.8125 3.28125C30.125 3.28125 30.3203 3.38281 30.3984 3.58594C30.4766 3.78906 30.5156 4.02344 30.5156 4.28906C30.4219 4.46094 30.3047 4.58594 30.1641 4.66406C30.0234 4.72656 29.875 4.74219 29.7188 4.71094C29.5781 4.66406 29.4531 4.5625 29.3438 4.40625C29.25 4.25 29.2031 4.03125 29.2031 3.75ZM32.2266 11.4141C32.2266 11.3984 32.2188 11.375 32.2031 11.3438C32.2031 11.2969 32.2031 11.2656 32.2031 11.25C32.2031 11.0156 32.2969 10.8828 32.4844 10.8516C32.6719 10.8047 32.8438 10.7812 33 10.7812C33.1719 10.7812 33.3672 10.9297 33.5859 11.2266C33.8047 11.5078 34.0469 11.8906 34.3125 12.375C34.5938 12.8438 34.875 13.3594 35.1562 13.9219C35.4531 14.4844 35.75 15.0391 36.0469 15.5859C36.3594 16.1172 36.6719 16.6016 36.9844 17.0391C37.3125 17.4766 37.625 17.7969 37.9219 18C38.0156 16.5781 38.0859 15.3672 38.1328 14.3672C38.1797 13.3672 38.2109 12.5234 38.2266 11.8359C38.2578 11.1484 38.2734 10.6094 38.2734 10.2188C38.2734 9.8125 38.2656 9.5 38.25 9.28125C38.25 9.0625 38.2422 8.92188 38.2266 8.85938C38.2266 8.78125 38.2266 8.72656 38.2266 8.69531C38.2266 8.41406 38.2734 8.24219 38.3672 8.17969C38.4766 8.11719 38.6172 8.08594 38.7891 8.08594C38.9922 8.08594 39.2031 8.11719 39.4219 8.17969C39.6406 8.24219 39.75 8.39844 39.75 8.64844C39.7969 9.66406 39.7969 10.6953 39.75 11.7422C39.7188 12.7734 39.6641 13.8047 39.5859 14.8359C39.5078 15.8516 39.4453 16.8516 39.3984 17.8359C39.3516 18.8203 39.3516 19.7734 39.3984 20.6953C39.3672 20.7266 39.2969 20.7656 39.1875 20.8125C39.0781 20.8438 38.9609 20.875 38.8359 20.9062C38.7109 20.9375 38.5859 20.9609 38.4609 20.9766C38.3516 20.9922 38.2734 21 38.2266 21C38.0703 20.9688 37.8281 20.7578 37.5 20.3672C37.1719 19.9609 36.8047 19.4531 36.3984 18.8438C35.9922 18.2344 35.5703 17.5547 35.1328 16.8047C34.6953 16.0547 34.2734 15.3281 33.8672 14.625C33.4766 13.9219 33.1328 13.2812 32.8359 12.7031C32.5391 12.125 32.3359 11.6953 32.2266 11.4141ZM47.6953 20.3906C47.6172 19.9844 47.5469 19.5 47.4844 18.9375C47.4375 18.3594 47.3828 17.7812 47.3203 17.2031C47.2578 16.6094 47.1797 16.0547 47.0859 15.5391C47.0078 15.0234 46.8828 14.6016 46.7109 14.2734C45.9141 15.8984 45.2109 17.1797 44.6016 18.1172C43.9922 19.0391 43.4531 19.7031 42.9844 20.1094C42.5312 20.5 42.1484 20.6875 41.8359 20.6719C41.5234 20.6562 41.2656 20.5156 41.0625 20.25C40.8594 19.9844 40.7109 19.6484 40.6172 19.2422C40.5391 18.8203 40.4844 18.4297 40.4531 18.0703C40.4531 17.7266 40.5312 17.2422 40.6875 16.6172C40.8438 15.9922 41.0547 15.3125 41.3203 14.5781C41.5859 13.8281 41.8984 13.0703 42.2578 12.3047C42.6328 11.5391 43.0312 10.8438 43.4531 10.2188C43.875 9.59375 44.3125 9.07812 44.7656 8.67188C45.2188 8.26562 45.6719 8.0625 46.125 8.0625C46.7969 7.95312 47.2891 8.10156 47.6016 8.50781C47.9297 8.89844 47.9922 9.5625 47.7891 10.5C47.7891 11.5312 47.8281 12.4141 47.9062 13.1484C48 13.8828 48.0938 14.5859 48.1875 15.2578C48.2969 15.9297 48.3906 16.6328 48.4688 17.3672C48.5625 18.1016 48.6094 18.9844 48.6094 20.0156C48.6094 20.2031 48.5859 20.3672 48.5391 20.5078C48.5078 20.6328 48.3203 20.6953 47.9766 20.6953C47.9297 20.6953 47.8672 20.6562 47.7891 20.5781C47.7266 20.5 47.6953 20.4375 47.6953 20.3906ZM46.4297 9.91406C46.2578 9.66406 46.0234 9.64062 45.7266 9.84375C45.4297 10.0469 45.1172 10.3828 44.7891 10.8516C44.4609 11.3203 44.125 11.8828 43.7812 12.5391C43.4375 13.1953 43.1172 13.8594 42.8203 14.5312C42.5234 15.2031 42.2656 15.8438 42.0469 16.4531C41.8281 17.0469 41.6797 17.5391 41.6016 17.9297C41.6016 18.4922 41.6875 18.8125 41.8594 18.8906C42.0312 18.9531 42.2422 18.8594 42.4922 18.6094C42.7422 18.3594 43.0234 18 43.3359 17.5312C43.6641 17.0625 43.9766 16.5625 44.2734 16.0312C44.5859 15.5 44.875 14.9844 45.1406 14.4844C45.4219 13.9844 45.6406 13.5781 45.7969 13.2656C45.9375 12.9375 46.0469 12.6328 46.125 12.3516C46.2031 12.0703 46.2656 11.8047 46.3125 11.5547C46.375 11.2891 46.4062 11.0234 46.4062 10.7578C46.4219 10.4922 46.4297 10.2109 46.4297 9.91406ZM50.4609 10.9922C50.3047 11.0703 50.1562 11.1562 50.0156 11.25C49.8906 11.3281 49.7656 11.4062 49.6406 11.4844C49.5156 11.5469 49.3906 11.5938 49.2656 11.625C49.1406 11.6562 49.0078 11.6562 48.8672 11.625C48.7734 11.625 48.6953 11.5703 48.6328 11.4609C48.5703 11.3359 48.5234 11.2031 48.4922 11.0625C48.4453 10.9062 48.4141 10.7578 48.3984 10.6172C48.3828 10.4609 48.3828 10.3438 48.3984 10.2656L50.6484 8.97656L50.7891 2.97656C50.8203 2.77344 50.9453 2.69531 51.1641 2.74219C51.3828 2.77344 51.6094 2.82031 51.8438 2.88281C51.875 2.88281 51.9219 2.89844 51.9844 2.92969C52.0625 2.94531 52.1172 2.96094 52.1484 2.97656C52.1172 3.39844 52.0781 3.85938 52.0312 4.35938C52 4.84375 51.9688 5.33594 51.9375 5.83594C51.9062 6.32031 51.8828 6.79688 51.8672 7.26562C51.8672 7.73438 51.8906 8.15625 51.9375 8.53125L55.4531 7.54688C55.5156 7.53125 55.5625 7.57812 55.5938 7.6875C55.6406 7.78125 55.6797 7.89844 55.7109 8.03906C55.7578 8.17969 55.7891 8.32031 55.8047 8.46094C55.8203 8.60156 55.8281 8.67188 55.8281 8.67188L51.8438 10.3594C51.8438 10.5 51.8516 10.8359 51.8672 11.3672C51.8984 11.8984 51.9297 12.5312 51.9609 13.2656C51.9922 13.9844 52.0234 14.7656 52.0547 15.6094C52.0859 16.4375 52.1172 17.2109 52.1484 17.9297C52.1797 18.6484 52.2031 19.2812 52.2188 19.8281C52.2344 20.3594 52.2422 20.6953 52.2422 20.8359C52.2109 21.3047 52.0703 21.5391 51.8203 21.5391C51.5859 21.5391 51.3281 21.4219 51.0469 21.1875L50.4609 10.9922ZM56.9531 15.9375C56.875 15.9531 56.7578 15.9766 56.6016 16.0078C56.4453 16.0391 56.2812 16.0469 56.1094 16.0312C55.9375 16.0156 55.7891 15.9688 55.6641 15.8906C55.5234 15.8125 55.4531 15.6797 55.4531 15.4922C55.4531 15.3828 55.4766 15.3047 55.5234 15.2578C55.5703 15.2109 55.6484 15.1406 55.7578 15.0469C56.1016 14.7656 56.3906 14.4062 56.625 13.9688C56.875 13.5156 57.1016 13.0391 57.3047 12.5391C57.5078 12.0234 57.7188 11.5156 57.9375 11.0156C58.1719 10.5 58.4375 10.0391 58.7344 9.63281C59.0312 9.22656 59.3984 8.89844 59.8359 8.64844C60.2734 8.39844 60.8125 8.28125 61.4531 8.29688C61.7188 8.29688 62.0156 8.35938 62.3438 8.48438C62.6719 8.60938 62.9766 8.78125 63.2578 9C63.5391 9.20312 63.7734 9.45312 63.9609 9.75C64.1484 10.0469 64.2422 10.375 64.2422 10.7344C64.3203 10.8594 64.2422 11.0391 64.0078 11.2734C63.7891 11.5078 63.4844 11.7656 63.0938 12.0469C62.7031 12.3125 62.2578 12.5938 61.7578 12.8906C61.2734 13.1719 60.8047 13.4375 60.3516 13.6875C59.8984 13.9375 59.5 14.1562 59.1562 14.3438C58.8125 14.5312 58.5859 14.6719 58.4766 14.7656C58.3984 14.9219 58.3359 15.1016 58.2891 15.3047C58.2422 15.5078 58.2031 15.7031 58.1719 15.8906C58.1562 16.0625 58.1406 16.2266 58.125 16.3828C58.125 16.5234 58.125 16.6328 58.125 16.7109C58.125 17.0078 58.1094 17.3359 58.0781 17.6953C58.0625 18.0547 58.0781 18.3984 58.125 18.7266C58.1875 19.0391 58.3203 19.3047 58.5234 19.5234C58.7266 19.7266 59.0703 19.8281 59.5547 19.8281C60.0703 19.8281 60.5547 19.7031 61.0078 19.4531C61.4609 19.1875 61.8828 18.8672 62.2734 18.4922C62.6641 18.1172 63.0156 17.7109 63.3281 17.2734C63.6562 16.8359 63.9453 16.4297 64.1953 16.0547C64.4609 15.6641 64.6953 15.3438 64.8984 15.0938C65.1016 14.8438 65.2734 14.7188 65.4141 14.7188C65.5703 14.7188 65.7344 14.75 65.9062 14.8125C66.0938 14.8594 66.1875 14.9844 66.1875 15.1875C66.1875 15.4688 66.0703 15.8047 65.8359 16.1953C65.6172 16.5859 65.3203 17 64.9453 17.4375C64.5859 17.875 64.1641 18.3125 63.6797 18.75C63.2109 19.1719 62.7344 19.5547 62.25 19.8984C61.7656 20.2266 61.2891 20.5 60.8203 20.7188C60.3516 20.9219 59.9375 21.0234 59.5781 21.0234C58.875 21.0234 58.3438 20.8516 57.9844 20.5078C57.625 20.1641 57.3672 19.7344 57.2109 19.2188C57.0703 18.7031 56.9922 18.1562 56.9766 17.5781C56.9766 16.9844 56.9688 16.4375 56.9531 15.9375ZM61.2656 9.60938C61 9.60938 60.7188 9.74219 60.4219 10.0078C60.125 10.2578 59.8438 10.5703 59.5781 10.9453C59.3281 11.3047 59.1172 11.6797 58.9453 12.0703C58.7891 12.4453 58.7109 12.7578 58.7109 13.0078C58.9453 13.0078 59.2812 12.9219 59.7188 12.75C60.1719 12.5625 60.6172 12.3359 61.0547 12.0703C61.4922 11.8047 61.875 11.5234 62.2031 11.2266C62.5312 10.9297 62.6953 10.6484 62.6953 10.3828C62.6953 10.2422 62.6406 10.125 62.5312 10.0312C62.4219 9.9375 62.2891 9.85938 62.1328 9.79688C61.9922 9.73438 61.8438 9.6875 61.6875 9.65625C61.5312 9.625 61.3906 9.60938 61.2656 9.60938ZM67.8516 19.8047C67.9609 19.0859 68.0312 18.1875 68.0625 17.1094C68.1094 16.0312 68.125 14.8828 68.1094 13.6641C68.1094 12.4453 68.0859 11.1875 68.0391 9.89062C67.9922 8.59375 67.9297 7.36719 67.8516 6.21094C67.7734 5.03906 67.6797 3.99219 67.5703 3.07031C67.4766 2.14844 67.375 1.42188 67.2656 0.890625C67.4062 0.796875 67.5234 0.726562 67.6172 0.679688C67.7266 0.617188 67.8516 0.585938 67.9922 0.585938C68.1016 0.585938 68.1953 0.609375 68.2734 0.65625C68.3516 0.6875 68.4141 0.765625 68.4609 0.890625C68.7734 3.95312 68.9844 7.03906 69.0938 10.1484C69.2188 13.2578 69.3125 16.3516 69.375 19.4297C69.375 19.5703 69.375 19.7656 69.375 20.0156C69.375 20.25 69.3672 20.375 69.3516 20.3906C69.1328 20.5 68.9375 20.5547 68.7656 20.5547C68.5938 20.5391 68.4375 20.4922 68.2969 20.4141C68.1562 20.3203 68.0469 20.2188 67.9688 20.1094C67.8906 20 67.8516 19.8984 67.8516 19.8047ZM76.6875 20.9062L70.6406 11.2266C70.625 11.2109 70.6094 11.1562 70.5938 11.0625C70.5781 10.9531 70.5703 10.8672 70.5703 10.8047C70.5703 10.6016 70.6016 10.4297 70.6641 10.2891C70.7422 10.1328 70.9297 10.0547 71.2266 10.0547C71.2891 10.0547 71.3984 10.0938 71.5547 10.1719C71.7109 10.2344 71.8047 10.2969 71.8359 10.3594C72.1797 10.9062 72.5312 11.5156 72.8906 12.1875C73.2656 12.8594 73.6484 13.5312 74.0391 14.2031C74.4453 14.875 74.8672 15.5234 75.3047 16.1484C75.7422 16.7578 76.2031 17.2812 76.6875 17.7188L77.25 8.53125C77.2656 8.53125 77.3047 8.53125 77.3672 8.53125C77.4453 8.51562 77.5 8.50781 77.5312 8.50781C77.6719 8.50781 77.8125 8.53125 77.9531 8.57812C78.0938 8.60938 78.1953 8.71094 78.2578 8.88281C78.2734 9.44531 78.2734 10.1406 78.2578 10.9688C78.2578 11.7969 78.2422 12.6484 78.2109 13.5234C78.1953 14.3984 78.1719 15.2422 78.1406 16.0547C78.125 16.8516 78.1094 17.4922 78.0938 17.9766C78.0781 18.2891 78.0469 18.7578 78 19.3828C77.9688 20.0078 77.9219 20.7109 77.8594 21.4922C77.8125 22.2891 77.75 23.125 77.6719 24C77.6094 24.875 77.5469 25.7031 77.4844 26.4844C77.4219 27.2656 77.3672 27.9688 77.3203 28.5938C77.2734 29.2344 77.2344 29.6953 77.2031 29.9766H75.9844L76.6875 20.9062ZM83.0156 12.7031C83.0156 11.8125 82.9531 10.9609 82.8281 10.1484C82.7188 9.33594 82.5234 8.57031 82.2422 7.85156C81.9766 7.13281 81.6094 6.44531 81.1406 5.78906C80.6875 5.11719 80.1016 4.48438 79.3828 3.89062C79.3672 3.85938 79.3594 3.8125 79.3594 3.75V3.60938C79.3594 3.45312 79.3906 3.3125 79.4531 3.1875C79.5156 3.04688 79.6406 2.97656 79.8281 2.97656H79.8984C79.9297 2.97656 79.9531 2.98438 79.9688 3C80.75 3.65625 81.3906 4.32031 81.8906 4.99219C82.4062 5.66406 82.8125 6.375 83.1094 7.125C83.4062 7.875 83.6172 8.67969 83.7422 9.53906C83.8672 10.3828 83.9297 11.3047 83.9297 12.3047C83.9297 13.0234 83.8828 13.7969 83.7891 14.625C83.7109 15.4375 83.5547 16.2344 83.3203 17.0156C83.0859 17.7812 82.7656 18.5156 82.3594 19.2188C81.9688 19.9219 81.4688 20.5156 80.8594 21V20.6953C80.8594 20.1641 80.9688 19.6094 81.1875 19.0312C81.4219 18.4375 81.6719 17.8047 81.9375 17.1328C82.2031 16.4609 82.4453 15.7656 82.6641 15.0469C82.8984 14.3125 83.0156 13.5312 83.0156 12.7031Z" fill="#1C1C1C"/>
</svg>
