<svg width="52" height="52" viewBox="0 0 52 52" fill="none" xmlns="http://www.w3.org/2000/svg">
<circle cx="26" cy="26" r="26" fill="#F1F1FF"/>
<path d="M23.8432 13C24.0564 13 24.2609 13.0847 24.4117 13.2355C24.5625 13.3862 24.6472 13.5907 24.6472 13.8039V17.0197C24.6472 17.2329 24.5625 17.4373 24.4117 17.5881C24.2609 17.7389 24.0564 17.8236 23.8432 17.8236C23.63 17.8236 23.4255 17.7389 23.2748 17.5881C23.124 17.4373 23.0393 17.2329 23.0393 17.0197V13.8039C23.0393 13.5907 23.124 13.3862 23.2748 13.2355C23.4255 13.0847 23.63 13 23.8432 13ZM17.5887 15.5887C17.6633 15.5138 17.752 15.4544 17.8497 15.4139C17.9474 15.3733 18.0521 15.3525 18.1578 15.3525C18.2636 15.3525 18.3683 15.3733 18.466 15.4139C18.5636 15.4544 18.6523 15.5138 18.727 15.5887L21.0005 17.8638C21.0773 17.9379 21.1386 18.0266 21.1807 18.1247C21.2228 18.2228 21.245 18.3283 21.2459 18.4351C21.2469 18.5418 21.2265 18.6477 21.1861 18.7465C21.1457 18.8453 21.086 18.935 21.0105 19.0105C20.935 19.086 20.8453 19.1457 20.7465 19.1861C20.6477 19.2265 20.5418 19.2469 20.4351 19.2459C20.3283 19.245 20.2228 19.2228 20.1247 19.1807C20.0266 19.1386 19.9379 19.0773 19.8638 19.0005L17.5903 16.727C17.4395 16.5763 17.3549 16.3718 17.3549 16.1586C17.3549 15.9455 17.4395 15.741 17.5903 15.5903L17.5887 15.5887ZM30.0978 15.5887C30.1727 15.6633 30.2321 15.752 30.2726 15.8497C30.3131 15.9474 30.334 16.0521 30.334 16.1578C30.334 16.2636 30.3131 16.3683 30.2726 16.466C30.2321 16.5636 30.1727 16.6523 30.0978 16.727L27.8211 19.0005C27.7469 19.0773 27.6582 19.1386 27.5601 19.1807C27.462 19.2228 27.3566 19.245 27.2498 19.2459C27.1431 19.2469 27.0372 19.2265 26.9384 19.1861C26.8396 19.1457 26.7498 19.086 26.6744 19.0105C26.5989 18.935 26.5392 18.8453 26.4988 18.7465C26.4583 18.6477 26.438 18.5418 26.4389 18.4351C26.4399 18.3283 26.462 18.2228 26.5042 18.1247C26.5463 18.0266 26.6075 17.9379 26.6843 17.8638L28.9578 15.5903C29.1086 15.4395 29.313 15.3549 29.5262 15.3549C29.7394 15.3549 29.9438 15.4395 30.0946 15.5903L30.0978 15.5887ZM15 21.8432C15 21.63 15.0847 21.4255 15.2355 21.2748C15.3862 21.124 15.5907 21.0393 15.8039 21.0393H19.0197C19.2329 21.0393 19.4373 21.124 19.5881 21.2748C19.7389 21.4255 19.8236 21.63 19.8236 21.8432C19.8236 22.0564 19.7389 22.2609 19.5881 22.4117C19.4373 22.5625 19.2329 22.6472 19.0197 22.6472H15.8039C15.5907 22.6472 15.3862 22.5625 15.2355 22.4117C15.0847 22.2609 15 22.0564 15 21.8432ZM25.6762 21.5217C25.4415 21.3262 25.1561 21.2016 24.8532 21.1625C24.5504 21.1234 24.2426 21.1713 23.966 21.3007C23.6894 21.43 23.4553 21.6355 23.2912 21.893C23.1271 22.1506 23.0397 22.4495 23.0393 22.7549V37.388C23.0393 38.8737 24.8803 39.5651 25.8579 38.4476L29.1154 34.7238C29.342 34.4654 29.6212 34.2585 29.9342 34.1168C30.2473 33.9751 30.587 33.9019 30.9307 33.9022H36.0935C37.5969 33.9022 38.2786 32.021 37.1226 31.0595L25.6762 21.5201V21.5217ZM24.6472 37.3912V22.7549L36.0935 32.2943H30.9307C30.3576 32.2943 29.7911 32.4167 29.2692 32.6536C28.7473 32.8904 28.282 33.2361 27.9047 33.6674L24.6472 37.3896V37.3912Z" fill="#1B5BD8"/>
</svg>
